<?xml version="1.0" encoding="UTF-8"?>
<svg version="1.1" xmlns="http://www.w3.org/2000/svg" width="256" height="256">
<path d="M0 0 C3.3 0 6.6 0 10 0 C10.33 23.1 10.66 46.2 11 70 C15.7605733 65.06034414 15.7605733 65.06034414 16.65942383 59.64697266 C16.68888847 58.44640732 16.68888847 58.44640732 16.71894836 57.22158813 C16.71501572 56.37760468 16.71108307 55.53362122 16.70703125 54.6640625 C16.72971321 53.34503433 16.72971321 53.34503433 16.75285339 51.99935913 C16.79563076 49.20764321 16.80455858 46.4170106 16.8125 43.625 C16.83565211 41.72523182 16.86101893 39.82548925 16.88867188 37.92578125 C16.95142567 33.28375882 16.98383871 28.64240899 17 24 C19.97 24 22.94 24 26 24 C26 33.9 26 43.8 26 54 C31.86872851 50.92260683 31.86872851 50.92260683 32.77294922 47.98535156 C32.78865967 46.94846191 32.78865967 46.94846191 32.8046875 45.890625 C32.83046875 45.13652344 32.85625 44.38242187 32.8828125 43.60546875 C32.88023437 42.82816406 32.87765625 42.05085938 32.875 41.25 C32.895625 40.45722656 32.91625 39.66445313 32.9375 38.84765625 C32.98445818 36.89889185 32.99574383 34.94932543 33 33 C36.3 33 39.6 33 43 33 C43 36.96 43 40.92 43 45 C44.381875 44.525625 45.76375 44.05125 47.1875 43.5625 C62.83004143 38.19267234 80.48295745 39.98241713 95.4609375 46.5078125 C103.02464264 50.29848058 109.07149349 55.00018843 115 61 C115.70898438 61.68707031 116.41796875 62.37414063 117.1484375 63.08203125 C129.87522992 76.22329775 133.52223778 92.67181816 133.41992188 110.42504883 C133.19793625 119.15861786 132.49850317 128.09215886 127.26367188 135.43579102 C119.03394761 147.0913219 121.00144294 161.68172008 121.0625 175.3125 C121.05325494 177.99940578 121.03359555 180.68620178 121.01367188 183.37304688 C120.97304134 189.91564508 120.97120109 196.45735827 121 203 C118.03 203 115.06 203 112 203 C111.67 188.15 111.34 173.3 111 158 C105.89656315 161.24598803 105.89656315 161.24598803 105.36076355 164.6449585 C105.35410172 165.64867493 105.34743988 166.65239136 105.34057617 167.68652344 C105.31111153 169.39784454 105.31111153 169.39784454 105.28105164 171.14373779 C105.28498428 172.36989807 105.28891693 173.59605835 105.29296875 174.859375 C105.27028679 176.74864716 105.27028679 176.74864716 105.24714661 178.67608643 C105.21144908 182.01702314 105.19710798 185.35666424 105.19311523 188.69769287 C105.18377943 192.10982782 105.14636337 195.52164302 105.11132812 198.93359375 C105.04834904 205.62240283 105.01351648 212.31091802 105 219 C101.7 219 98.4 219 95 219 C95 202.17 95 185.34 95 168 C93.02 168.99 93.02 168.99 91 170 C90.01 170 89.02 170 88 170 C88 193.1 88 216.2 88 240 C85.03 240 82.06 240 79 240 C79 217.89 79 195.78 79 173 C76.36 173.33 73.72 173.66 71 174 C71.14308594 175.25490234 71.14308594 175.25490234 71.2890625 176.53515625 C73.26931459 197.32780324 67.9562572 214.94822679 54.75 231.1875 C43.49377195 243.44651006 27.38673202 251.57203785 10.7734375 252.28125 C-9.67671491 252.78716457 -26.74843354 248.02137969 -42.01953125 234.01953125 C-50.04891114 226.18028708 -55.36002142 216.56668888 -59 206 C-59.23332031 205.34 -59.46664062 204.68 -59.70703125 204 C-62.5544473 194.49495649 -62.53499236 183.72161825 -61 174 C-63.64 173.67 -66.28 173.34 -69 173 C-69 195.11 -69 217.22 -69 240 C-71.97 240 -74.94 240 -78 240 C-78 216.9 -78 193.8 -78 170 C-79.65 169.67 -81.3 169.34 -83 169 C-83.66 168.67 -84.32 168.34 -85 168 C-85 184.83 -85 201.66 -85 219 C-88.3 219 -91.6 219 -95 219 C-95.00142502 218.2947821 -95.00285004 217.58956421 -95.00431824 216.86297607 C-95.02215849 210.21221011 -95.06380115 203.56206707 -95.13209057 196.91161728 C-95.16636139 193.49258427 -95.19147046 190.07399805 -95.19555664 186.65478516 C-95.20065919 182.72257599 -95.24576323 178.79131333 -95.29296875 174.859375 C-95.2890361 173.63321472 -95.28510345 172.40705444 -95.28105164 171.14373779 C-95.30069473 170.00285706 -95.32033783 168.86197632 -95.34057617 167.68652344 C-95.34723801 166.68280701 -95.35389984 165.67909058 -95.36076355 164.6449585 C-95.89656315 161.24598803 -95.89656315 161.24598803 -101 158 C-101.33 172.85 -101.66 187.7 -102 203 C-104.97 203 -107.94 203 -111 203 C-110.99476318 202.32142944 -110.98952637 201.64285889 -110.98413086 200.94372559 C-110.93700736 193.80391846 -110.94676447 186.66571131 -110.98779297 179.52587891 C-111.00025565 176.86971938 -110.98997877 174.21648673 -110.96923828 171.56005859 C-110.71551238 151.46918206 -110.71551238 151.46918206 -118.05615234 133.21118164 C-122.89035602 125.22521318 -123.50961165 116.70609281 -123.375 107.5625 C-123.36412354 106.5526001 -123.35324707 105.5427002 -123.34204102 104.50219727 C-122.93428389 85.43301209 -115.39453035 71.09330403 -102 58 C-101.43925781 57.40703125 -100.87851563 56.8140625 -100.30078125 56.203125 C-88.28441675 44.47061163 -70.51404177 40.56319413 -54.38427734 40.63696289 C-47.01783313 40.81582818 -39.67398033 41.66300984 -33 45 C-33 41.04 -33 37.08 -33 33 C-29.7 33 -26.4 33 -23 33 C-22.99613281 34.77117188 -22.99613281 34.77117188 -22.9921875 36.578125 C-22.95466149 38.13545445 -22.91551394 39.69274542 -22.875 41.25 C-22.87757812 42.02730469 -22.88015625 42.80460937 -22.8828125 43.60546875 C-22.85703125 44.35957031 -22.83125 45.11367188 -22.8046875 45.890625 C-22.79421387 46.58188477 -22.78374023 47.27314453 -22.77294922 47.98535156 C-21.86872851 50.92260683 -21.86872851 50.92260683 -16 54 C-16 44.1 -16 34.2 -16 24 C-13.03 24 -10.06 24 -7 24 C-6.99589111 25.18029785 -6.99178223 26.3605957 -6.98754883 27.57666016 C-6.96571472 31.97163067 -6.9113809 36.36571135 -6.84741211 40.76025391 C-6.82426934 42.65925545 -6.80984514 44.55838466 -6.80444336 46.45751953 C-6.7951264 49.1938397 -6.75407769 51.92816215 -6.70703125 54.6640625 C-6.7109639 55.50804596 -6.71489655 56.35202942 -6.71894836 57.22158813 C-6.69930527 58.02196503 -6.67966217 58.82234192 -6.65942383 59.64697266 C-6.64943108 60.69288071 -6.64943108 60.69288071 -6.63923645 61.75991821 C-5.89135183 64.95347733 -5.89135183 64.95347733 -1 70 C-0.67 46.9 -0.34 23.8 0 0 Z M-100 69 C-107.93548481 78.80534043 -114 90.09636516 -114 103 C-108.39 103 -102.78 103 -97 103 C-91.55846777 92.71916045 -86.12731717 82.44221912 -81 72 C-79.57220801 74.67912216 -78.58187015 77.18114143 -77.85498047 80.12597656 C-77.55489578 81.32676849 -77.55489578 81.32676849 -77.24874878 82.55181885 C-77.04033356 83.40612488 -76.83191833 84.26043091 -76.6171875 85.140625 C-76.39805695 86.02280701 -76.17892639 86.90498901 -75.95315552 87.81390381 C-75.25600275 90.62486012 -74.56542186 93.43738372 -73.875 96.25 C-73.40277645 98.15896126 -72.93012518 100.06781676 -72.45703125 101.9765625 C-71.2997252 106.64983014 -70.14830949 111.32451397 -69 116 C-65.7712378 114.3856189 -65.20291216 110.97354218 -63.9609375 107.75390625 C-63.67521881 107.02759506 -63.38950012 106.30128387 -63.09512329 105.55296326 C-62.49176569 104.01502993 -61.89178939 102.47576646 -61.29492188 100.93530273 C-60.37900572 98.57283216 -59.45214436 96.21488957 -58.5234375 93.85742188 C-57.93945225 92.36483824 -57.35609761 90.87200768 -56.7734375 89.37890625 C-56.49535248 88.67053116 -56.21726746 87.96215607 -55.93075562 87.23231506 C-54.49188947 83.71916753 -54.49188947 83.71916753 -54 80 C-53.34 80 -52.68 80 -52 80 C-51.83201904 80.53294678 -51.66403809 81.06589355 -51.4909668 81.61499023 C-49.56540752 87.57216911 -47.27988634 93.31121429 -44.8125 99.0625 C-44.44447266 99.92810547 -44.07644531 100.79371094 -43.69726562 101.68554688 C-42.80127408 103.79170883 -41.90215345 105.89647192 -41 108 C-37.56984539 105.19350987 -37.5990235 103.79707049 -36 99 C-24.12 99 -12.24 99 0 99 C-4.19378616 82.22485537 -10.75372569 68.87252147 -25.5 59.0625 C-50.40633949 44.39933112 -79.86361201 47.66092672 -100 69 Z M22 71 C13.15870588 81.41107491 9.81430615 94.27235305 9.875 107.625 C9.87113281 108.48351562 9.86726562 109.34203125 9.86328125 110.2265625 C9.86457031 111.0515625 9.86585938 111.8765625 9.8671875 112.7265625 C9.86831543 113.47502441 9.86944336 114.22348633 9.87060547 114.99462891 C9.92802443 117.20821618 9.92802443 117.20821618 11 120 C12.34578125 120.185625 12.34578125 120.185625 13.71875 120.375 C31.36403186 123.29157551 47.00230457 131.6218782 58.0390625 145.9921875 C61.9591453 152.00506351 64.97002508 158.50489419 68 165 C81.39172842 163.67271331 92.19947451 160.10557671 103 152 C103.81597656 151.39285156 104.63195312 150.78570312 105.47265625 150.16015625 C115.77869423 141.35144063 122.84235066 127.49114947 124.20532227 113.96191406 C125.02586291 96.42626787 120.95522464 81.82015469 109.375 68.1875 C98.39745457 56.77750582 83.46770055 50.03832903 67.625 49.6875 C48.91636758 49.86381172 34.57651091 57.8518295 22 71 Z M-84 97 C-86.31 101.62 -88.62 106.24 -91 111 C-98.59 111.33 -106.18 111.66 -114 112 C-112.11288341 128.98404927 -104.99201002 141.90354554 -92 153 C-81.4131428 160.5934487 -70.84598791 163.59323475 -58 165 C-57.50371094 163.94941406 -57.00742188 162.89882812 -56.49609375 161.81640625 C-52.70735726 153.9287663 -49.02619473 146.45478186 -43 140 C-42.38125 139.32839844 -41.7625 138.65679687 -41.125 137.96484375 C-30.70170749 127.719221 -15.3950275 121.5646769 -1 120 C0.47434165 116.10402133 0.47434165 116.10402133 0 108 C-9.57 108 -19.14 108 -29 108 C-32.20504328 114.16070695 -32.20504328 114.16070695 -35.40185547 120.32568359 C-36.00344482 121.47544678 -36.00344482 121.47544678 -36.6171875 122.6484375 C-37.02565918 123.43395996 -37.43413086 124.21948242 -37.85498047 125.02880859 C-39 127 -39 127 -41 129 C-44.63 120.75 -48.26 112.5 -52 104 C-54.55149825 105.27574913 -54.6626296 106.16967335 -55.69580078 108.78540039 C-56.01598175 109.58615494 -56.33616272 110.38690948 -56.66604614 111.21192932 C-57.00570404 112.08171921 -57.34536194 112.95150909 -57.6953125 113.84765625 C-58.04761932 114.7340831 -58.39992615 115.62050995 -58.76290894 116.53379822 C-59.89008442 119.37418228 -61.00762404 122.21824849 -62.125 125.0625 C-62.88608857 126.9852756 -63.6477993 128.90780507 -64.41015625 130.83007812 C-66.28067706 135.55055626 -68.14256282 140.27435919 -70 145 C-73.44837437 132.80276191 -76.64476019 120.58218913 -79.58007812 108.25 C-79.86689453 107.074375 -80.15371094 105.89875 -80.44921875 104.6875 C-80.70018311 103.63949219 -80.95114746 102.59148437 -81.2097168 101.51171875 C-81.83116873 98.86064366 -81.83116873 98.86064366 -84 97 Z M-38.51953125 148.03515625 C-50.09227084 161.8677694 -53.43411669 177.36341602 -52 195 C-51.11811746 199.56278358 -49.75971617 203.70559331 -48 208 C-47.67257813 208.85722656 -47.34515625 209.71445313 -47.0078125 210.59765625 C-40.89192537 224.68205326 -28.0590368 234.52799987 -14.15234375 240.22265625 C-0.50711271 245.1507887 15.05604059 244.37344579 28.27734375 238.55859375 C43.63701676 230.83395073 53.666341 219.37681676 59.9765625 203.55078125 C64.73864554 189.01975216 62.59952806 173.57959065 56.375 159.9375 C53.13173194 153.73263729 48.96011104 148.89854938 44 144 C43.45859375 143.43667969 42.9171875 142.87335938 42.359375 142.29296875 C30.62089185 131.05841038 15.52126389 128.37088891 -0.01171875 128.69140625 C-15.31732363 129.3864601 -28.14715654 137.12395688 -38.51953125 148.03515625 Z " fill="#FFFFFF" transform="translate(123,0)"/>
<path d="M0 0 C0.66 0 1.32 0 2 0 C3.34819031 1.64349365 3.34819031 1.64349365 4.9050293 3.97558594 C5.48870773 4.84358826 6.07238617 5.71159058 6.67375183 6.605896 C7.61448296 8.0307431 7.61448296 8.0307431 8.57421875 9.484375 C9.21744583 10.45151428 9.86067291 11.41865356 10.52339172 12.4151001 C11.88456198 14.46734988 13.24197208 16.52209772 14.59594727 18.57910156 C16.67542262 21.73169008 18.77540538 24.86990868 20.87695312 28.0078125 C22.19398896 29.99915361 23.50978588 31.99131478 24.82421875 33.984375 C25.45744553 34.92617615 26.0906723 35.86797729 26.74308777 36.83831787 C27.31730972 37.71892883 27.89153168 38.59953979 28.4831543 39.50683594 C29.25020943 40.66599518 29.25020943 40.66599518 30.03276062 41.84857178 C31 44 31 44 30.82504272 46.01147461 C29.86955039 48.31441083 28.70735387 50.23837899 27.31616211 52.30957031 C26.75565659 53.15013977 26.19515106 53.99070923 25.61766052 54.85675049 C25.01035599 55.75480408 24.40305145 56.65285767 23.77734375 57.578125 C23.15726944 58.5046991 22.53719513 59.43127319 21.89833069 60.38592529 C19.91677228 63.34427006 17.9272562 66.29716436 15.9375 69.25 C14.59257137 71.25485451 13.24816384 73.2600587 11.90429688 75.265625 C8.60890035 80.18115677 5.30695444 85.09223751 2 90 C-1.48616905 88.83794365 -1.92166822 88.06993414 -3.92675781 85.11035156 C-4.77213104 83.87336517 -4.77213104 83.87336517 -5.63458252 82.61138916 C-6.23470154 81.71353699 -6.83482056 80.81568481 -7.453125 79.890625 C-8.07274109 78.97166443 -8.69235718 78.05270386 -9.33074951 77.105896 C-10.63944514 75.1583954 -11.94379499 73.20796858 -13.24414062 71.25488281 C-15.23989847 68.26513263 -17.25964398 65.29262506 -19.28125 62.3203125 C-20.54837943 60.42808991 -21.81405377 58.53489194 -23.078125 56.640625 C-23.99044891 55.30599213 -23.99044891 55.30599213 -24.92120361 53.94439697 C-25.47217712 53.10713074 -26.02315063 52.2698645 -26.59082031 51.40722656 C-27.0814093 50.67522034 -27.57199829 49.94321411 -28.07745361 49.18902588 C-29.28587171 46.32168118 -28.95755015 44.93364842 -28 42 C-26.83021545 39.804245 -26.83021545 39.804245 -25.34790039 37.5769043 C-24.79385025 36.73641037 -24.23980011 35.89591644 -23.66896057 35.029953 C-23.06793015 34.1370607 -22.46689972 33.2441684 -21.84765625 32.32421875 C-21.23232529 31.3990596 -20.61699432 30.47390045 -19.98301697 29.52070618 C-18.68311848 27.57066796 -17.37919195 25.62330965 -16.0715332 23.6784668 C-14.06300632 20.68825379 -12.07076179 17.68765995 -10.08007812 14.68554688 C-8.81606199 12.79363055 -7.5511199 10.90233246 -6.28515625 9.01171875 C-5.68615005 8.10870529 -5.08714386 7.20569183 -4.46998596 6.27531433 C-3.63418251 5.03821465 -3.63418251 5.03821465 -2.78149414 3.77612305 C-2.29153458 3.04507858 -1.80157501 2.31403412 -1.29676819 1.56083679 C-0.65486794 0.78822258 -0.65486794 0.78822258 0 0 Z M-5 25 C-6.97946049 27.5322983 -8.74719718 30.22343408 -10.5625 32.875 C-11.08263672 33.62136719 -11.60277344 34.36773437 -12.13867188 35.13671875 C-12.63044922 35.85214844 -13.12222656 36.56757812 -13.62890625 37.3046875 C-14.08338135 37.96452637 -14.53785645 38.62436523 -15.00610352 39.30419922 C-16.16854873 40.95998086 -16.16854873 40.95998086 -16 43 C-12.04 44.32 -8.08 45.64 -4 47 C-4 39.74 -4 32.48 -4 25 C-4.33 25 -4.66 25 -5 25 Z M6 25 C6 32.26 6 39.52 6 47 C9.96 45.68 13.92 44.36 18 43 C14.65401026 36.80007783 11.2248264 30.6553847 7 25 C6.67 25 6.34 25 6 25 Z M-11 55 C-9.55007731 59.10811428 -7.54592427 62.46855666 -5 66 C-4.67 66 -4.34 66 -4 66 C-4 63.03 -4 60.06 -4 57 C-7.7018576 54.7763932 -7.7018576 54.7763932 -11 55 Z M6 57 C6 59.97 6 62.94 6 66 C7.33895632 64.33784732 8.67130142 62.67036393 10 61 C10.5775 60.278125 11.155 59.55625 11.75 58.8125 C13.18924432 57.0925523 13.18924432 57.0925523 13 55 C9.7018576 54.7763932 9.7018576 54.7763932 6 57 Z " fill="#FFFFFF" transform="translate(189,62)"/>
<path d="M0 0 C3.3 0 6.6 0 10 0 C10.33 2.64 10.66 5.28 11 8 C12.19625 8.350625 13.3925 8.70125 14.625 9.0625 C19.41865371 10.84202687 22.22149445 13.76974933 25 18 C26.76765025 23.30295076 26.77586015 28.25431467 24.5 33.375 C24.005 34.24125 23.51 35.1075 23 36 C22.7474104 39.06336666 22.7474104 39.06336666 24.5 41.5625 C26.9565388 47.19206808 26.84150189 52.52224445 24.875 58.3125 C21.62255963 62.9743312 18.75857323 65.6312669 13.125 66.8125 C11.578125 66.9053125 11.578125 66.9053125 10 67 C10 69.64 10 72.28 10 75 C6.7 75 3.4 75 0 75 C0 72.36 0 69.72 0 67 C-3.96 67 -7.92 67 -12 67 C-12 47.53 -12 28.06 -12 8 C-8.04 8 -4.08 8 0 8 C0 5.36 0 2.72 0 0 Z M-3 18 C-3 22.95 -3 27.9 -3 33 C-0.6075 33.061875 1.785 33.12375 4.25 33.1875 C5.37003418 33.22846802 5.37003418 33.22846802 6.51269531 33.27026367 C9.57379306 33.30854798 11.7046561 33.15888452 14.41796875 31.69921875 C16.99073967 28.93587221 17.06373968 26.69690146 17 23 C15.05581502 20.13257064 15.05581502 20.13257064 12 18 C9.11628549 17.62646185 7.01710038 17.51287147 4.1875 17.6875 C1.815625 17.790625 -0.55625 17.89375 -3 18 Z M-3 42 C-3 47.28 -3 52.56 -3 58 C-0.7725 58.04125 1.455 58.0825 3.75 58.125 C5.62945312 58.15980469 5.62945312 58.15980469 7.546875 58.1953125 C10.74991415 58.01414513 12.38654582 57.76737189 15 56 C16.92199114 53.43734514 17.01028636 52.16801051 16.8125 48.9375 C15.98082873 45.93068849 15.47771236 44.81063596 13 43 C7.83608171 41.2786939 2.40708764 41.94646448 -3 42 Z " fill="#FFFFFF" transform="translate(123,148)"/>
<path d="M0 0 C3.98440872 1.29224067 5.63628473 2.58959557 8 6 C7.60167969 6.58265625 7.20335938 7.1653125 6.79296875 7.765625 C-0.17446191 18.54734251 -2.52119389 29.31127305 0.0625 41.8125 C3.24802681 53.54709177 9.89774189 60.87769766 19.96484375 67.2421875 C28.49179177 72.0200684 38.51921963 73.04461884 48 71 C53.8166327 69.04465139 59.20100921 66.88003511 64 63 C67.33523252 64.38009621 69.18607951 65.84950652 71 69 C69.32748383 74.01754852 64.53181261 75.66368418 60 78 C46.25940223 83.71066245 32.19528985 83.24821266 18.375 78.00390625 C7.05359917 72.89158619 -2.2653433 63.45990832 -7.28125 52.09765625 C-12.43351867 38.38894138 -12.78046652 24.61660047 -7 11 C-2.61748634 2.61748634 -2.61748634 2.61748634 0 0 Z " fill="#FFFFFF" transform="translate(89,154)"/>
<path d="M0 0 C0.66773438 0.26683594 1.33546875 0.53367188 2.0234375 0.80859375 C15.6509229 6.86824635 23.56528605 17.68977377 29.0546875 31.140625 C33.41406265 44.32683413 31.43244313 58.16038959 25.5 70.4375 C23.90991142 73.53103771 22.14558795 76.2618805 20 79 C17.04590299 77.62845496 14.55991624 76.01136276 12 74 C13.04116502 71.89356892 14.10402036 69.80696221 15.21875 67.73828125 C20.88749888 57.00568048 22.66711372 47.29674084 19.375 35.5 C15.72935806 24.56307418 9.27164779 16.16571215 -1 10.6875 C-11.08549257 6.13339192 -21.92351768 5.38553766 -32.46484375 8.93359375 C-37.17736519 10.91590246 -41.59672293 13.413284 -46 16 C-47.65 14.02 -49.3 12.04 -51 10 C-48.56940936 3.6058894 -41.52611858 1.59953777 -35.68359375 -1.05078125 C-24.8776712 -5.016085 -10.51273027 -4.54764174 0 0 Z " fill="#FFFFFF" transform="translate(147,139)"/>
<path d="M0 0 C3.3 0 6.6 0 10 0 C10 2.97 10 5.94 10 9 C6.7 9 3.4 9 0 9 C0 6.03 0 3.06 0 0 Z " fill="#FFFFFF" transform="translate(218,227)"/>
<path d="M0 0 C3.3 0 6.6 0 10 0 C10 2.97 10 5.94 10 9 C6.7 9 3.4 9 0 9 C0 6.03 0 3.06 0 0 Z " fill="#FFFFFF" transform="translate(28,227)"/>
<path d="M0 0 C2.97 0 5.94 0 9 0 C9 2.97 9 5.94 9 9 C6.03 9 3.06 9 0 9 C0 6.03 0 3.06 0 0 Z " fill="#FFFFFF" transform="translate(202,247)"/>
<path d="M0 0 C2.97 0 5.94 0 9 0 C9 2.97 9 5.94 9 9 C6.03 9 3.06 9 0 9 C0 6.03 0 3.06 0 0 Z " fill="#FFFFFF" transform="translate(45,247)"/>
<path d="M0 0 C2.97 0 5.94 0 9 0 C9 2.97 9 5.94 9 9 C6.03 9 3.06 9 0 9 C0 6.03 0 3.06 0 0 Z " fill="#FFFFFF" transform="translate(235,210)"/>
<path d="M0 0 C2.97 0 5.94 0 9 0 C9 2.97 9 5.94 9 9 C6.03 9 3.06 9 0 9 C0 6.03 0 3.06 0 0 Z " fill="#FFFFFF" transform="translate(12,210)"/>
<path d="M0 0 C2.97 0 5.94 0 9 0 C9 2.97 9 5.94 9 9 C6.03 9 3.06 9 0 9 C0 6.03 0 3.06 0 0 Z " fill="#FFFFFF" transform="translate(140,8)"/>
<path d="M0 0 C2.97 0 5.94 0 9 0 C9 2.97 9 5.94 9 9 C6.03 9 3.06 9 0 9 C0 6.03 0 3.06 0 0 Z " fill="#FFFFFF" transform="translate(107,8)"/>
</svg>
